<?xml version="1.0" encoding="utf-8"?><svg viewBox="0 0 96 96" xmlns="http://www.w3.org/2000/svg" xmlns:xlink="http://www.w3.org/1999/xlink"><style>:root>svg{display:none}:root>svg:target{display:block}</style><svg fill="none" viewBox="0 0 96 96" id="001-famous" xmlns="http://www.w3.org/2000/svg"><path d="M57.193 54.674c7.233-5.078 8.98-15.056 3.902-22.289-5.077-7.232-15.056-8.98-22.288-3.902-7.232 5.078-8.98 15.056-3.902 22.289a16 16 0 003.902 3.902A17.827 17.827 0 0024 72.213V94.4a1.6 1.6 0 001.6 1.6h44.8a1.6 1.6 0 001.6-1.6V72.212a17.827 17.827 0 00-14.807-17.538zM35.2 41.6c0-7.07 5.73-12.8 12.8-12.8s12.8 5.73 12.8 12.8S55.07 54.4 48 54.4c-7.066-.008-12.792-5.734-12.8-12.8zm33.6 51.2H27.2V72.212c.009-8.066 6.546-14.603 14.613-14.612h12.375c8.066.009 14.603 6.546 14.612 14.612V92.8zM49.598 14.4v-3.2a1.6 1.6 0 10-3.2 0v3.2a1.6 1.6 0 003.2 0zM65.601 14.672l-2.263 2.263a1.6 1.6 0 002.263 2.263l2.263-2.263a1.6 1.6 0 10-2.263-2.263zM86.402 92.8h-3.2a1.6 1.6 0 000 3.2h3.2a1.6 1.6 0 000-3.2zM86.402 76.8h-3.2a1.6 1.6 0 000 3.2h3.2a1.6 1.6 0 000-3.2zM86.402 60.8h-3.2a1.6 1.6 0 000 3.2h3.2a1.6 1.6 0 000-3.2zM84.217 44.373l-3.035 1.012a1.6 1.6 0 001.012 3.036l3.036-1.013a1.6 1.6 0 10-1.013-3.035zM79.245 27.78l-3.036 1.013a1.6 1.6 0 001.013 3.036l3.035-1.013a1.6 1.6 0 10-1.012-3.035zM32.664 16.939l-2.262-2.263a1.6 1.6 0 10-2.263 2.262l2.262 2.263a1.6 1.6 0 102.263-2.262zM12.8 92.8H9.6a1.6 1.6 0 000 3.2h3.2a1.6 1.6 0 000-3.2zM12.8 76.8H9.6a1.6 1.6 0 000 3.2h3.2a1.6 1.6 0 100-3.2zM12.8 60.8H9.6a1.6 1.6 0 000 3.2h3.2a1.6 1.6 0 100-3.2zM14.823 45.385l-3.036-1.012a1.6 1.6 0 10-1.011 3.036l3.036 1.012a1.6 1.6 0 001.011-3.036zM19.789 28.804l-3.036-1.012a1.6 1.6 0 10-1.012 3.036l3.035 1.012a1.6 1.6 0 001.013-3.036z" fill="#0A2896"/></svg><svg fill="none" viewBox="0 0 96 96" id="001-television" xmlns="http://www.w3.org/2000/svg"><path d="M85.062 37.446v.07l.067.024c1.73.617 2.987 2.239 3.029 4.166h-2.899a1.65 1.65 0 00-1.645-1.548c-.91 0-1.648.74-1.648 1.648a1.65 1.65 0 001.648 1.649A4.551 4.551 0 0188.159 48c0 1.971-1.27 3.638-3.03 4.266l-.067.024v3.352h-2.897V52.29l-.066-.024c-1.73-.617-2.987-2.239-3.03-4.166h2.9a1.65 1.65 0 001.645 1.548c.91 0 1.648-.74 1.648-1.648a1.65 1.65 0 00-1.648-1.648 4.551 4.551 0 01-4.545-4.546c0-1.97 1.27-3.638 3.03-4.266l.066-.023V34.164h2.897v3.282z" fill="#0A2896" stroke="#fff" stroke-width=".2"/><path d="M78.215 95.9h-60.43l4.546-9.09H37.813l.028-.056 3.097-6.193.072-.145H7.742C3.529 80.416.1 76.988.1 72.774V23.226c0-4.214 3.429-7.642 7.642-7.642h72.872l-.016-.114L79.11 5.054A4.344 4.344 0 0183.407.1h.412a4.344 4.344 0 014.294 4.956h0L86.626 15.47l-.017.114h.78L95.9 25.799v46.975c0 4.214-3.428 7.642-7.642 7.642H54.99l.072.145 3.097 6.193.028.056H73.67l4.545 9.09zm14.788-69.017v-.036l-.023-.028-6.665-7.994-.144-.173-.031.223-.477 3.341-.01.07.063.032c1.446.763 2.442 2.262 2.442 4.005a4.551 4.551 0 01-4.545 4.545 4.551 4.551 0 01-4.545-4.545c0-2.2 1.572-4.038 3.651-4.454l.07-.014.01-.07.456-3.19.017-.114h-2.076l-.03.036-6.92 8.302-.023.028v32.092h18.78V26.883zM86.81 61.935v-.1H71.326V25.8l.8-.96.137-.165H11.29a2.1 2.1 0 00-2.1 2.1v36.258c0 1.16.94 2.1 2.1 2.1h73.42a2.1 2.1 0 002.1-2.1v-1.096zM73.365 93.004h.162l-.072-.144-1.549-3.097-.027-.055H24.12l-.027.055-1.549 3.097-.072.144H73.365zm-18.58-6.193h.162l-.073-.145-3.097-6.194-.027-.055H44.25l-.027.055-3.097 6.194-.073.145H54.785zM83.514 15.39h.198l1.534-10.745v-.001a1.445 1.445 0 00-1.428-1.648h-.41a1.445 1.445 0 00-1.43 1.644l1.536 10.75zm-6.227 3.254l.137-.164H7.741a4.751 4.751 0 00-4.744 4.745v49.548a4.751 4.751 0 004.745 4.745h80.516a4.751 4.751 0 004.745-4.745V61.835h-3.297v4.294a1.9 1.9 0 01-1.9 1.9H8.194a1.9 1.9 0 01-1.9-1.9V23.677c0-1.049.85-1.9 1.9-1.9h66.482l.03-.036 2.581-3.096zm6.326 9.326c.91 0 1.648-.74 1.648-1.648a1.65 1.65 0 00-1.648-1.649c-.91 0-1.648.74-1.648 1.649a1.65 1.65 0 001.648 1.648z" fill="#0A2896" stroke="#fff" stroke-width=".2"/><path d="M86.81 72.774a1.448 1.448 0 112.898 0 1.448 1.448 0 01-2.897 0zM80.616 72.774a1.448 1.448 0 112.896 0 1.448 1.448 0 01-2.896 0zM74.424 72.774a1.448 1.448 0 112.897 0 1.448 1.448 0 01-2.897 0zM6.295 72.774a1.448 1.448 0 112.897 0 1.448 1.448 0 01-2.897 0zM12.487 72.774a1.448 1.448 0 112.897 0 1.448 1.448 0 01-2.897 0zM20.001 36.343a1.448 1.448 0 012.543-1.387l13.596 24.93a1.448 1.448 0 01-2.542 1.386L20 36.343zM16.501 29.921a1.448 1.448 0 012.543-1.387l.236.434a1.448 1.448 0 11-2.542 1.387l-.237-.434zM30.439 29.922a1.448 1.448 0 012.543-1.387l17.1 31.347a1.448 1.448 0 11-2.544 1.387l-17.1-31.347zM61.228 60.83a1.448 1.448 0 112.542-1.388l.244.447a1.448 1.448 0 01-2.543 1.387l-.243-.447zM44.373 29.922a1.449 1.449 0 012.543-1.388l13.73 25.164a1.449 1.449 0 01-2.542 1.388L44.373 29.922z" fill="#0A2896" stroke="#fff" stroke-width=".2"/></svg><svg fill="none" viewBox="0 0 96 96" id="002-calendar" xmlns="http://www.w3.org/2000/svg"><path d="M21 47.337h6a2.163 2.163 0 010 4.325h-6a2.163 2.163 0 010-4.325zM21 59.337h6a2.163 2.163 0 010 4.325h-6a2.163 2.163 0 010-4.325zM21 71.338h6a2.163 2.163 0 010 4.325h-6a2.163 2.163 0 010-4.325zM45 47.337h6a2.163 2.163 0 010 4.325h-6a2.163 2.163 0 010-4.325zM45 59.337h6a2.163 2.163 0 010 4.325h-6a2.163 2.163 0 010-4.325zM45 71.338h6a2.163 2.163 0 010 4.325h-6a2.163 2.163 0 010-4.325zM69 47.337h6a2.163 2.163 0 010 4.325h-6a2.163 2.163 0 010-4.325zM69 59.337h6a2.163 2.163 0 010 4.325h-6a2.163 2.163 0 010-4.325zM69 71.338h6a2.163 2.163 0 010 4.325h-6a2.163 2.163 0 010-4.325z" fill="#0A2896" stroke="#fff" stroke-width="1.3"/><path d="M80.162 12.188v.65h7.4c4.294 0 7.788 3.493 7.788 7.787V82.875c0 4.293-3.494 7.787-7.787 7.787H8.436c-4.293 0-7.787-3.494-7.787-7.787v-62.25c0-4.294 3.494-7.787 7.787-7.787h7.4V7.5a2.163 2.163 0 014.326 0v5.338H45.837V7.5a2.163 2.163 0 014.325 0v5.338H75.837V7.5a2.163 2.163 0 014.325 0v4.688zm-64.325 5.624v-.65h-7.4a3.466 3.466 0 00-3.462 3.463V32.338H91.025V20.624a3.466 3.466 0 00-3.463-3.462h-7.4V22.5a2.163 2.163 0 01-4.325 0v-5.338H50.164V22.5a2.163 2.163 0 01-4.325 0v-5.338H20.162V22.5a2.163 2.163 0 01-4.324 0v-4.688zM5.626 36.663h-.65v46.213a3.466 3.466 0 003.463 3.463h79.124a3.466 3.466 0 003.463-3.463V36.662h-85.4z" fill="#0A2896" stroke="#fff" stroke-width="1.3"/></svg><svg fill="none" viewBox="0 0 96 96" id="002-clock" xmlns="http://www.w3.org/2000/svg"><g clip-path="url(#dclip0)" fill="#0A2896" stroke="#fff" stroke-width=".5"><path d="M66.136 19.25v.2l.196.044a37.401 37.401 0 0118.4 10.102A37.698 37.698 0 0195.566 52.46c.844 8.493-1.237 17.09-5.858 24.208a1.625 1.625 0 11-2.726-1.77c8.773-13.51 6.86-31.594-4.549-43.002l-.177.177.177-.177c-13.403-13.403-35.211-13.403-48.614 0-13.403 13.403-13.403 35.211 0 48.614 11.423 11.424 29.523 13.327 43.04 4.525a1.625 1.625 0 011.773 2.724c-6.089 3.965-13.265 6.068-20.534 6.068-1.23 0-2.461-.06-3.691-.181A37.696 37.696 0 0131.52 82.808a37.408 37.408 0 01-8.568-13.25l-.061-.161H9.375a1.625 1.625 0 010-3.25h12.472l-.083-.314a37.825 37.825 0 01-1.163-7.16l-.015-.233H12a1.625 1.625 0 010-3.25H20.534l.008-.242a37.88 37.88 0 01.924-7.16l.07-.305H1.875a1.625 1.625 0 010-3.25h20.587l.057-.17a37.341 37.341 0 013.305-7.16l.225-.377H14.656a1.625 1.625 0 010-3.25h13.362c.037 0 .075.002.123.006l.135.01.082-.106a37.8 37.8 0 013.163-3.59 37.4 37.4 0 0118.342-10.09l.196-.043V14.29l-.19-.047c-2.666-.663-4.647-3.077-4.647-5.944a6.132 6.132 0 016.125-6.125h13.5A6.132 6.132 0 0170.974 8.3a6.136 6.136 0 01-4.647 5.944l-.19.047v4.96zm-12.827-.632v.282l.28-.034a37.96 37.96 0 019.018-.006l.28.033v-4.468h-9.578v4.193zM51.347 5.424A2.878 2.878 0 0048.472 8.3a2.878 2.878 0 002.875 2.876h13.501a2.878 2.878 0 002.875-2.876 2.878 2.878 0 00-2.875-2.875h-13.5z"/><path d="M82.433 80.51v-.001c.302-.302.72-.476 1.149-.476.426 0 .845.174 1.15.476.301.302.475.722.475 1.149 0 .426-.174.846-.476 1.148a1.628 1.628 0 01-2.297 0h-.001a1.632 1.632 0 01-.476-1.148c0-.428.173-.847.476-1.149zM29.29 56.202c0-15.901 12.936-28.837 28.836-28.837 15.9 0 28.837 12.936 28.837 28.837 0 15.9-12.936 28.837-28.837 28.837-15.9 0-28.837-12.937-28.837-28.837zm3.25 0c0 14.109 11.477 25.587 25.586 25.587 14.11 0 25.587-11.478 25.587-25.587 0-14.11-11.478-25.587-25.587-25.587S32.54 42.093 32.54 56.202z"/><path d="M60.59 51.2l.16.08.127-.127 9.287-9.287s0 0 0 0a1.625 1.625 0 012.298 2.298l-.273.273-9.014 9.014-.127.127.08.16c.367.744.575 1.58.575 2.464a5.583 5.583 0 01-5.577 5.576 5.583 5.583 0 01-5.576-5.576c0-.884.207-1.72.575-2.463l.08-.16-.127-.128-4.157-4.156a1.625 1.625 0 012.299-2.298l4.156 4.156.127.127.16-.08a5.54 5.54 0 012.463-.575c.884 0 1.72.208 2.463.575zm-4.79 5.002a2.329 2.329 0 002.326 2.326 2.329 2.329 0 002.327-2.326 2.329 2.329 0 00-2.327-2.326 2.329 2.329 0 00-2.326 2.326zM76.438 54.6h1.737a1.625 1.625 0 010 3.25h-1.737a1.625 1.625 0 010-3.25zM38.078 54.554h1.737a1.625 1.625 0 010 3.25h-1.737a1.625 1.625 0 010-3.25zM59.773 37.891a1.625 1.625 0 01-3.25 0v-1.737a1.625 1.625 0 013.25 0v1.737zM56.48 74.513a1.625 1.625 0 013.25 0v1.736a1.625 1.625 0 01-3.25 0v-1.736zM3.024 68.92h0a1.638 1.638 0 01-1.149.476 1.64 1.64 0 01-1.149-.476A1.635 1.635 0 01.25 67.77c0-.427.174-.847.476-1.149a1.64 1.64 0 011.149-.476c.427 0 .847.174 1.149.476h0c.302.302.476.722.476 1.149 0 .427-.174.847-.476 1.149z"/></g><defs><clipPath id="dclip0"><path fill="#fff" d="M0 0h96v96H0z"/></clipPath></defs></svg><svg fill="none" viewBox="0 0 96 96" id="003-loan" xmlns="http://www.w3.org/2000/svg"><g clip-path="url(#eclip0)" fill="#0A2896"><path d="M87.375 55.655a2.461 2.461 0 00-2.289-1.54h-1.275a12.668 12.668 0 00-6.166 1.606l-9.311 5.207h-2.656a7.35 7.35 0 00-7.222-6.027H41.685a1.314 1.314 0 00-1.004.466l-5.08 6.022a1.304 1.304 0 00-.992-.461H9.75a1.313 1.313 0 000 2.625h16.035v18.81H9.75a1.312 1.312 0 100 2.626h24.86a1.312 1.312 0 001.312-1.313v-6.294l26.766-1.228c.026 0 .052 0 .075-.006a18.907 18.907 0 0011.18-5.25L86.811 58.35a2.462 2.462 0 00.564-2.696zM33.3 82.364h-4.89V63.553h4.89v18.81zm38.813-13.342a16.268 16.268 0 01-9.584 4.511l-26.604 1.222V65.08l6.375-7.553h16.156a4.725 4.725 0 014.605 3.712l-13.3 3.265a1.313 1.313 0 00.625 2.548l14.255-3.499h4.035c.224 0 .445-.057.64-.166l9.611-5.374a10.026 10.026 0 014.885-1.275h.9L72.113 69.022zM61.737 49.915a19.452 19.452 0 10-19.452-19.452 19.474 19.474 0 0019.452 19.452zm0-36.279A16.827 16.827 0 1144.91 30.463a16.846 16.846 0 0116.827-16.827z"/><path fill-rule="evenodd" clip-rule="evenodd" d="M57.852 23A2.855 2.855 0 0055 25.852a2.855 2.855 0 002.852 2.852 2.855 2.855 0 002.852-2.852A2.855 2.855 0 0057.852 23zm0 4.148a1.298 1.298 0 01-1.296-1.296c0-.715.581-1.296 1.296-1.296.715 0 1.296.581 1.296 1.296 0 .715-.581 1.296-1.296 1.296zm9.919-2.831a.778.778 0 00-1.1 0L56.404 34.583a.778.778 0 101.1 1.1L67.77 25.417a.778.778 0 000-1.1zm-4.3 9.831a2.855 2.855 0 012.851-2.852 2.855 2.855 0 012.852 2.852A2.855 2.855 0 0166.322 37a2.855 2.855 0 01-2.852-2.852zm1.555 0c0 .715.581 1.296 1.296 1.296.715 0 1.296-.581 1.296-1.296 0-.715-.581-1.296-1.296-1.296-.715 0-1.296.581-1.296 1.296z"/><path d="M59.148 25.852h.3-.3zm7.523-1.535l-.213-.212.213.212zm1.1 0l-.213.212.212-.212zM56.403 34.583l.212.212-.212-.212zm0 1.1l.212-.212-.212.212zm1.1 0l-.212-.212.212.212zM67.77 25.417l-.212-.212.212.212zm-12.47.435a2.555 2.555 0 012.552-2.552v-.6a3.155 3.155 0 00-3.152 3.152h.6zm2.552 2.552a2.555 2.555 0 01-2.552-2.552h-.6a3.155 3.155 0 003.152 3.152v-.6zm2.552-2.552a2.555 2.555 0 01-2.552 2.552v.6a3.155 3.155 0 003.152-3.152h-.6zM57.852 23.3a2.555 2.555 0 012.552 2.552h.6a3.155 3.155 0 00-3.152-3.152v.6zm-1.596 2.552c0 .88.715 1.596 1.596 1.596v-.6a.998.998 0 01-.996-.996h-.6zm1.596-1.596c-.88 0-1.596.715-1.596 1.596h.6c0-.55.447-.996.996-.996v-.6zm1.596 1.596c0-.88-.716-1.596-1.596-1.596v.6c.549 0 .996.447.996.996h.6zm-1.596 1.596c.88 0 1.596-.716 1.596-1.596h-.6c0 .549-.447.996-.996.996v.6zm9.03-2.919a.478.478 0 01.676 0l.425-.424a1.078 1.078 0 00-1.525 0l.425.424zM56.617 34.795L66.883 24.53l-.425-.424L56.192 34.37l.424.424zm0 .676a.478.478 0 010-.675l-.424-.425c-.42.421-.42 1.103 0 1.524l.424-.424zm.338.14a.476.476 0 01-.338-.14l-.424.424c.21.21.487.316.762.316v-.6zm.338-.14a.475.475 0 01-.338.14v.6c.276 0 .552-.105.762-.316l-.424-.424zm10.266-10.266L57.292 35.47l.424.424L67.983 25.63l-.425-.424zm0-.676a.478.478 0 010 .676l.424.424a1.078 1.078 0 000-1.524l-.424.424zm-1.236 6.467a3.155 3.155 0 00-3.152 3.152h.6a2.555 2.555 0 012.552-2.552v-.6zm3.152 3.152a3.155 3.155 0 00-3.152-3.152v.6a2.555 2.555 0 012.552 2.552h.6zM66.322 37.3a3.155 3.155 0 003.152-3.152h-.6a2.555 2.555 0 01-2.552 2.552v.6zm-3.152-3.152a3.155 3.155 0 003.152 3.152v-.6a2.555 2.555 0 01-2.552-2.552h-.6zm3.152.996a.998.998 0 01-.996-.996h-.6c0 .88.716 1.596 1.596 1.596v-.6zm.996-.996c0 .55-.447.996-.996.996v.6c.88 0 1.596-.715 1.596-1.596h-.6zm-.996-.996c.55 0 .996.447.996.996h.6c0-.88-.716-1.596-1.596-1.596v.6zm-.996.996c0-.549.447-.996.996-.996v-.6c-.88 0-1.596.716-1.596 1.596h.6z"/><rect y="-1.414" width="5" height="126.893" rx="2.5" transform="scale(-1 1) rotate(45 -5.361 -6.85)" stroke="#fff" stroke-width="2"/></g><defs><clipPath id="eclip0"><path fill="#fff" d="M0 0h96v96H0z"/></clipPath></defs></svg><svg fill="none" viewBox="0 0 96 96" id="003-money" xmlns="http://www.w3.org/2000/svg"><path d="M14.522 14.522h0C23.502 5.542 35.389.6 48 .6c12.61 0 24.499 4.943 33.478 13.922C90.458 23.502 95.4 35.389 95.4 48c0 12.61-4.943 24.499-13.922 33.478C72.498 90.458 60.611 95.4 48 95.4c-12.61 0-24.499-4.943-33.478-13.922C5.542 72.498.6 60.611.6 48c0-12.61 4.943-24.499 13.922-33.478zM5.025 48c0 23.697 19.278 42.975 42.975 42.975 23.697 0 42.975-19.278 42.975-42.975C90.975 24.303 71.697 5.025 48 5.025 24.303 5.025 5.025 24.303 5.025 48z" fill="#0A2896" stroke="#fff" stroke-width="1.2"/><path d="M12.037 48c0-19.83 16.134-35.962 35.963-35.962 19.83 0 35.963 16.133 35.963 35.962 0 19.83-16.134 35.963-35.963 35.963-19.83 0-35.962-16.134-35.962-35.963zm4.425 0c0 17.39 14.148 31.537 31.538 31.537S79.537 65.39 79.537 48 65.39 16.462 48 16.462 16.462 30.61 16.462 48z" fill="#0A2896" stroke="#fff" stroke-width="1.2"/><path d="M45.874 63.374a2.626 2.626 0 005.252 0v-23.25h7.26a2.614 2.614 0 100-5.229H38.614a2.614 2.614 0 000 5.229h7.26v23.25zM36 31.614a2.614 2.614 0 002.614 2.615h19.772a2.614 2.614 0 000-5.229H38.614A2.614 2.614 0 0036 31.614z" fill="#0A2896" stroke="#fff" stroke-width="2"/></svg><svg fill="none" viewBox="0 0 96 96" id="004-home" xmlns="http://www.w3.org/2000/svg"><g clip-path="url(#gclip0)"><path d="M25.25 19.125a1.625 1.625 0 11-3.25 0 1.625 1.625 0 013.25 0z" fill="#0A2896" stroke="#fff" stroke-width=".5"/><path d="M11.687 44.545l-.003-.003.208-.154c.078-.057.185-.138.332-.25l.402-.307v26.427l-.192.046c-4.193 1.006-7.437 4.418-8.212 8.74l-.018.102-.083.059C1.71 80.908.25 83.674.25 86.625c0 5.03 4.094 9.124 9.125 9.124h77.25c5.03 0 9.124-4.093 9.124-9.125 0-2.95-1.46-5.716-3.87-7.42l-.083-.058-.018-.101c-.775-4.324-4.021-7.738-8.212-8.741l-.192-.046V43.829l.403.31.332.256s0 0 0 0a7.181 7.181 0 004.39 1.48c3.997 0 7.25-3.252 7.25-7.25a7.19 7.19 0 00-2.854-5.765h0l-9.423-7.242-.098-.075V1.876c0-.898-.727-1.625-1.625-1.625H70.5c-.897 0-1.625.727-1.625 1.625V14.4l-.402-.31L52.39 1.73s0 0 0 0A7.182 7.182 0 0048 .25a7.189 7.189 0 00-4.395 1.485s0 0 0 0L29.328 12.706l-.152-.198.152.198a1.625 1.625 0 00-.298 2.279h0a1.625 1.625 0 002.279.298h0L45.58 4.316h0A3.964 3.964 0 0148 3.5c.883 0 1.72.281 2.414.81h.001l40.506 31.13a3.974 3.974 0 011.579 3.184c0 2.206-1.794 4-4 4-.882 0-1.72-.282-2.413-.81h-.001L48.99 13.285l.153-.198-.153.198a1.625 1.625 0 00-1.925-.042h0s-.011.01-.035.027l-.387.298-1.19.914-4.22 3.244a164308.527 164308.527 0 00-31.308 24.08l-.005.005h0a4 4 0 01-2.826.794s0 0 0 0l.024-.25c-1.857-.179-2.864-1.052-3.266-2.831-.337-1.49.191-2.98 1.385-3.89l6.449 8.911zm0 0A7.237 7.237 0 016.78 45.84h0c-1.692-.164-3.09-.74-4.156-1.672-1.067-.933-1.815-2.233-2.186-3.87l-.244.054.244-.055c-.643-2.846.38-5.694 2.672-7.44v-.001l12.844-9.87h0a1.625 1.625 0 011.98 2.577l.152.198-.152-.198-12.848 9.874s0 0 0 0l6.6 9.11zM72.375 3.501h-.25V16.897l.098.075 7.5 5.764.402.31V3.5h-7.75zM6.513 81.53l.122.219-.122-.218C4.657 82.579 3.5 84.529 3.5 86.625a5.881 5.881 0 005.875 5.874H30c2.205 0 4-1.794 4-4 0-1.755-1.148-3.218-2.693-3.756-.673-.234-1.202-.894-1.06-1.9l.003-.018v-.02C30.211 79.54 27.537 77 24.375 77c-.418 0-.863.059-1.358.177h0a1.625 1.625 0 01-1.702-.641A7.764 7.764 0 0015 73.25c-3.997 0-7.29 3.044-7.669 7.02-.05.53-.356 1-.82 1.262zm55.9.69l.115-.064.012-.13c.03-.328.08-.655.145-.98l.06-.299H33.257l.06.3c.066.324.115.65.145.98l.012.13.114.064a7.199 7.199 0 012.686 2.653l.072.125H59.655l.072-.125a7.198 7.198 0 012.687-2.653zm-26.135 9.903l-.218.376H59.941l-.218-.376a7.207 7.207 0 01-.973-3.624v-.25h-21.5v.25c0 1.32-.354 2.557-.972 3.624zm29.473-9.318v.019l.002.019c.142 1-.38 1.663-1.06 1.899-1.542.538-2.692 1.999-2.692 3.757 0 2.205 1.794 4 4 4h20.624a5.881 5.881 0 005.875-5.875c0-2.096-1.156-4.046-3.011-5.093a1.625 1.625 0 01-.82-1.262c-.379-3.98-3.673-7.02-7.669-7.02a7.764 7.764 0 00-6.315 3.286l.204.144-.204-.144a1.625 1.625 0 01-1.702.64A5.86 5.86 0 0071.625 77c-3.17 0-5.836 2.547-5.874 5.806zM79.9 70.058l.224-.023V41.33l-.097-.075L48.153 16.74 48 16.623l-.152.117-31.875 24.516-.097.075v28.704l.225.023c2.739.279 5.29 1.59 7.125 3.664l.086.097.13-.015c.318-.036.628-.054.934-.054a9.16 9.16 0 017.296 3.65l.075.1h32.507l.075-.1a9.16 9.16 0 017.296-3.65c.306 0 .616.018.934.054l.13.015.086-.097a11.025 11.025 0 017.125-3.664z" fill="#0A2896" stroke="#fff" stroke-width=".5"/><path d="M37.25 57.5c0-6.213 5.037-11.25 11.25-11.25s11.25 5.037 11.25 11.25v21.25h-22.5V57.5z" stroke="#0A2896" stroke-width="2.5"/></g><defs><clipPath id="gclip0"><path fill="#fff" d="M0 0h96v96H0z"/></clipPath></defs></svg><svg fill="none" viewBox="0 0 96 96" id="004-money-back" xmlns="http://www.w3.org/2000/svg"><g clip-path="url(#hclip0)" fill="#0A2896"><path d="M53.99 7.217l-.709.708.991.141c9.357 1.329 17.996 5.623 24.799 12.426 8.3 8.3 12.87 19.332 12.87 31.07 0 11.737-4.57 22.769-12.87 31.069C70.77 90.93 59.739 95.5 48 95.5c-11.737 0-22.77-4.57-31.07-12.87C8.633 74.332 4.063 63.3 4.063 51.563c0-9.246 2.839-18.09 8.209-25.578 5.254-7.328 12.5-12.796 20.953-15.814a2.313 2.313 0 011.556 4.355c-7.564 2.7-14.048 7.596-18.75 14.154-4.804 6.698-7.343 14.612-7.343 22.882 0 21.678 17.636 39.314 39.314 39.314s39.314-17.636 39.314-39.314c0-19.072-13.65-35.01-31.693-38.57l-1.612-.318 1.162 1.162 1.587 1.587a2.312 2.312 0 010 3.27h0a2.303 2.303 0 01-1.636.678 2.304 2.304 0 01-1.635-.678l-7.122-7.122a2.312 2.312 0 010-3.27h0l7.123-7.123s0 0 0 0a2.313 2.313 0 013.27 3.27l.353.354-.353-.353-2.77 2.77z" stroke="#fff"/><path d="M48.002 79.958c-15.657 0-28.397-12.74-28.397-28.397 0-15.658 12.74-28.397 28.397-28.397 15.658 0 28.397 12.74 28.397 28.397 0 15.657-12.74 28.397-28.397 28.397zM71.774 51.56c0-13.108-10.663-23.772-23.772-23.772-13.108 0-23.772 10.664-23.772 23.772 0 13.108 10.664 23.772 23.772 23.772 13.108 0 23.772-10.664 23.772-23.772z" stroke="#fff"/><path d="M45.924 61.424a1.576 1.576 0 103.152 0v-13.95h4.355a1.569 1.569 0 000-3.137H41.57a1.569 1.569 0 000 3.137h4.355v13.95zM40 40.57c0 .866.702 1.568 1.569 1.568H53.43a1.569 1.569 0 100-3.137H41.57c-.867 0-1.569.702-1.569 1.569z"/></g><defs><clipPath id="hclip0"><path fill="#fff" d="M0 0h96v96H0z"/></clipPath></defs></svg><svg fill="none" viewBox="0 0 96 96" id="Group" xmlns="http://www.w3.org/2000/svg"><path d="M69.965 3.773L14.57.068a3.286 3.286 0 00-3.493 3.055l-.433 6.479H3.28A3.285 3.285 0 000 12.883v79.775a3.285 3.285 0 003.281 3.281h42.402c.367 0 .731-.15.992-.41l6.4-6.372c.066.014.132.025.2.03l10.928.73c1.745.115 3.376-1.303 3.493-3.055L73.02 7.266c.12-1.787-1.269-3.374-3.055-3.493zM47.09 91.129v-9.768a.47.47 0 01.469-.47h9.73l-10.2 10.238zm17.801-4.454c-.046.283-.212.429-.499.436l-8.677-.58 5.953-5.927c.265-.264.414-.623.414-.997V12.883a3.285 3.285 0 00-3.28-3.28H44.175c-1.818 0-1.818 2.812 0 2.812H58.8a.47.47 0 01.469.468V78.08H47.558a3.285 3.285 0 00-3.282 3.282v11.766H3.281a.47.47 0 01-.469-.469V12.883a.47.47 0 01.47-.468h26.406c1.818 0 1.818-2.813 0-2.813H13.462l.421-6.292c.046-.283.212-.428.5-.436L69.776 6.58c.284.046.429.212.437.499L64.89 86.675z" fill="#0A2896"/><path d="M50.217 44.446H11.863a1.406 1.406 0 000 2.813h38.354a1.406 1.406 0 100-2.813zM50.217 54.25H11.863a1.406 1.406 0 000 2.812h38.354a1.406 1.406 0 100-2.812zM10.457 36.05c0 .776.63 1.405 1.406 1.405h38.354a1.406 1.406 0 100-2.812H11.863c-.776 0-1.406.63-1.406 1.406zM17.215 26.246c0 .776.63 1.406 1.406 1.406h24.841a1.406 1.406 0 000-2.813h-24.84c-.777 0-1.407.63-1.407 1.407zM36.515 82.272a6853.817 6853.817 0 01-10.137.02c-1.54 0-2.578-.308-2.923-2.003-.292-1.432-2.319-1.24-2.712 0-.973 3.064-2.583 1.863-3.484-.197-.9-2.056-1.13-4.356-1.523-6.544-.29-1.607-2.72-1.157-2.763.374-.056 2.016-.244 4-.756 5.955-.527 2.017-1.318 3.955-2.104 5.883-.684 1.68 2.038 2.403 2.712.747.696-1.707 1.393-3.425 1.912-5.196.963 2.317 2.957 4.939 5.798 3.394a5.663 5.663 0 001.456-1.172c1.477 1.707 3.677 1.572 5.735 1.57 2.93-.004 5.86-.01 8.79-.018 1.809-.005 1.812-2.817 0-2.813zM94.862 46.207c-.73-.727-1.735-1.1-2.755-1.127l-1.063.005v-2.01c0-1.224-.727-2.518-1.768-3.162v-2.83c0-5.826-9.07-5.8-9.07.027v2.831a3.717 3.717 0 00-1.773 3.16v2.059c-4.681.319-4.694 7.452.005 7.731.03 6.295.029 12.488-.005 18.888-.009 1.765 2.803 1.869 2.813.015.033-6.406.035-12.604.005-18.904l6.977-.035s-.009 20.784-.009 30.147c0 4.563-6.978 4.594-6.978-.047l.002-2.565c.11-1.815-2.697-1.984-2.807-.17v2.407c0 2.063.637 3.81 1.872 5.038a11.76 11.76 0 003.444 7.867c.602.596 1.433.414 2.015-.034a11.596 11.596 0 003.407-7.953c.928-.925 1.857-1.856 1.857-5.043l.002-12.816c2.431.692 4.967-1.19 4.967-3.74v-17a3.836 3.836 0 00-1.138-2.739zm-13.616-1.074v-2.032c0-.416.285-.765.67-.869l5.63-.028a.89.89 0 01.686.871v2.024l-6.986.034zm3.5-9.75c.864 0 1.717.847 1.717 1.7v2.28l-3.445.018V37.11c0-.948.775-1.722 1.728-1.727zm-.002 56.982a8.972 8.972 0 01-1.39-3.076c.435.094.876.143 1.317.143.493 0 .985-.061 1.47-.18a8.769 8.769 0 01-1.397 3.113zm8.444-26.419c0 1.332-2.148 1.436-2.148.025l.004-14.528c.001-.786-.653-1.408-1.417-1.408l-10.948.055c-1.358 0-1.326-2.125.014-2.131l13.428-.067c.65.055 1.005.407 1.067 1.053v17.001z" fill="#0A2896"/></svg><svg fill="none" viewBox="0 0 96 96" id="company" xmlns="http://www.w3.org/2000/svg"><path d="M91.313 83.402h-1.19V50.18a1.406 1.406 0 10-2.813 0v33.222H57.478V45.175H86.16c.633 0 1.15.515 1.15 1.149v7.23a1.406 1.406 0 102.812 0v-7.23a3.966 3.966 0 00-3.962-3.962H57.478V16.807a3.98 3.98 0 00-3.629-3.947v-2.82a3.981 3.981 0 00-3.652-3.95l-36.42-2.855a3.964 3.964 0 00-4.271 3.95v2.252a3.962 3.962 0 00-3.628 3.947v70.018h-1.19A4.693 4.693 0 000 88.089a4.693 4.693 0 004.688 4.688h86.624A4.693 4.693 0 0096 88.089a4.693 4.693 0 00-4.688-4.687zM12.317 7.185c0-.673.574-1.198 1.24-1.146l36.42 2.855c.594.046 1.059.55 1.059 1.145v2.6L12.318 9.604V7.185zM8.69 13.384c0-.679.58-1.2 1.24-1.146l43.676 3.423c.594.047 1.06.55 1.06 1.146v66.595h-3.93V63.268a2.324 2.324 0 00-2.321-2.32H35.35a2.324 2.324 0 00-2.321 2.32v19.123a1.406 1.406 0 002.812 0V63.76h12.082v19.642H35.841v-4.437a1.406 1.406 0 00-2.812 0v4.437H8.69V13.384zm82.623 76.58H4.686a1.877 1.877 0 01-1.875-1.875c0-1.034.842-1.875 1.876-1.875h86.624c1.034 0 1.876.841 1.876 1.875a1.877 1.877 0 01-1.876 1.875z" fill="#0A2896"/><path d="M14.231 30.552h5.692a2.43 2.43 0 002.427-2.427v-4.38a2.43 2.43 0 00-2.427-2.426h-5.692a2.43 2.43 0 00-2.426 2.427v4.379a2.43 2.43 0 002.426 2.427zm.386-6.42h4.92v3.607h-4.92v-3.608zM28.427 30.552h5.692a2.43 2.43 0 002.426-2.427v-4.38a2.43 2.43 0 00-2.426-2.426h-5.692A2.43 2.43 0 0026 23.746v4.379a2.43 2.43 0 002.427 2.427zm.385-6.42h4.92v3.607h-4.92v-3.608zM42.618 30.552h5.692a2.43 2.43 0 002.427-2.427v-4.38a2.43 2.43 0 00-2.427-2.426h-5.692a2.43 2.43 0 00-2.427 2.427v4.379a2.43 2.43 0 002.427 2.427zm.386-6.42h4.92v3.607h-4.92v-3.608zM14.231 43.196h5.692a2.43 2.43 0 002.427-2.427v-4.38a2.43 2.43 0 00-2.427-2.426h-5.692a2.43 2.43 0 00-2.426 2.426v4.38a2.43 2.43 0 002.426 2.427zm.386-6.42h4.92v3.607h-4.92v-3.608zM28.427 43.196h5.692a2.43 2.43 0 002.426-2.427v-4.38a2.43 2.43 0 00-2.426-2.426h-5.692A2.43 2.43 0 0026 36.389v4.38a2.43 2.43 0 002.427 2.427zm.385-6.42h4.92v3.607h-4.92v-3.608zM42.618 43.196h5.692a2.43 2.43 0 002.427-2.427v-4.38a2.43 2.43 0 00-2.427-2.426h-5.692a2.43 2.43 0 00-2.427 2.426v4.38a2.43 2.43 0 002.427 2.427zm.386-6.42h4.92v3.607h-4.92v-3.608zM14.231 55.84h5.692a2.43 2.43 0 002.427-2.427v-4.379a2.43 2.43 0 00-2.427-2.427h-5.692a2.43 2.43 0 00-2.426 2.427v4.38a2.43 2.43 0 002.426 2.426zm.386-6.42h4.92v3.608h-4.92V49.42zM27.102 60.947H14.505a2.703 2.703 0 00-2.7 2.7v3.833c0 1.488 1.21 2.7 2.7 2.7h12.597c1.49 0 2.7-1.212 2.7-2.7v-3.833c0-1.489-1.21-2.7-2.7-2.7zm-.112 6.42H14.617V63.76H26.99v3.608zM28.427 55.84h5.692a2.43 2.43 0 002.426-2.427v-4.379a2.43 2.43 0 00-2.426-2.427h-5.692A2.43 2.43 0 0026 49.034v4.38a2.43 2.43 0 002.427 2.426zm.385-6.42h4.92v3.608h-4.92V49.42zM42.618 55.84h5.692a2.43 2.43 0 002.427-2.427v-4.379a2.43 2.43 0 00-2.427-2.427h-5.692a2.43 2.43 0 00-2.427 2.427v4.38a2.43 2.43 0 002.427 2.426zm.386-6.42h4.92v3.608h-4.92V49.42zM71.358 54.618a2.59 2.59 0 00-2.587-2.587h-5.743a2.59 2.59 0 00-2.587 2.587v4.555a2.59 2.59 0 002.587 2.587h5.743a2.59 2.59 0 002.587-2.587v-4.555zm-2.813 4.33h-5.291v-4.104h5.292v4.104zM68.771 65.01h-5.743a2.59 2.59 0 00-2.587 2.586v4.555a2.59 2.59 0 002.587 2.587h5.743a2.59 2.59 0 002.587-2.587v-4.555a2.59 2.59 0 00-2.587-2.587zm-.225 6.916h-5.292v-4.104h5.292v4.104zM84.44 54.618a2.59 2.59 0 00-2.587-2.587H76.11a2.59 2.59 0 00-2.587 2.587v4.555a2.59 2.59 0 002.587 2.587h5.743a2.59 2.59 0 002.587-2.587v-4.555zm-2.813 4.33h-5.291v-4.104h5.291v4.104zM81.853 65.01H76.11a2.59 2.59 0 00-2.587 2.586v4.555a2.59 2.59 0 002.587 2.587h5.743a2.59 2.59 0 002.587-2.587v-4.555a2.59 2.59 0 00-2.587-2.587zm-.226 6.916h-5.291v-4.104h5.291v4.104z" fill="#0A2896"/></svg><svg fill="none" viewBox="0 0 96 96" id="google-docs-1" xmlns="http://www.w3.org/2000/svg"><g clip-path="url(#kclip0)" fill="#0A2896"><path d="M83.243 23.819h0c.377.376.62.92.62 1.494v62.25c0 4.265-3.472 7.737-7.738 7.737h-56.25c-4.266 0-7.738-3.472-7.738-7.737V8.436C12.137 4.173 15.61.7 19.875.7H59.25c.56 0 1.1.225 1.494.619h0l22.5 22.5zM62.558 9.107l-1.196-1.195v11.775a3.516 3.516 0 003.513 3.513H76.65l-1.195-1.195L62.557 9.107zm-5.42-3.482v-.7H19.874a3.516 3.516 0 00-3.512 3.513v79.124a3.516 3.516 0 003.512 3.513h56.25a3.516 3.516 0 003.513-3.513V27.425H64.874c-4.266 0-7.737-3.472-7.737-7.738V5.626z" stroke="#fff" stroke-width="1.4"/><path d="M31.125 40.45h33.75a2.113 2.113 0 010 4.225h-33.75a2.113 2.113 0 010-4.225zM31.125 51.7h33.75a2.113 2.113 0 010 4.225h-33.75a2.113 2.113 0 010-4.225zM31.125 62.95h33.75a2.113 2.113 0 010 4.225h-33.75a2.113 2.113 0 010-4.225zM31.125 74.2h22.5a2.113 2.113 0 010 4.225h-22.5a2.113 2.113 0 010-4.225z" stroke="#fff" stroke-width="1.4"/><path fill-rule="evenodd" clip-rule="evenodd" d="M65.538 75A2.54 2.54 0 0063 77.538a2.54 2.54 0 002.538 2.538 2.54 2.54 0 002.538-2.538A2.54 2.54 0 0065.538 75zm0 3.691a1.155 1.155 0 010-2.307 1.155 1.155 0 010 2.307zm8.826-2.52a.692.692 0 00-.979 0l-9.135 9.136a.692.692 0 00.978.98l9.136-9.136a.692.692 0 000-.98zm-3.827 8.75a2.54 2.54 0 012.538-2.539 2.54 2.54 0 012.538 2.538 2.54 2.54 0 01-2.538 2.538 2.54 2.54 0 01-2.538-2.538zm1.384 0a1.155 1.155 0 002.307 0 1.155 1.155 0 00-2.307 0z"/><path d="M66.691 77.538h.3-.3zm6.694-1.366l-.212-.212.212.212zm.979 0l-.212.212.212-.212zM64.25 85.307l.212.212-.212-.212zm0 .98l.212-.213-.212.212zm.978 0l-.212-.213.212.212zm9.136-9.136l-.212-.212.212.212zm-11.064.387a2.24 2.24 0 012.238-2.238v-.6a2.84 2.84 0 00-2.838 2.838h.6zm2.238 2.237a2.24 2.24 0 01-2.238-2.237h-.6a2.84 2.84 0 002.838 2.838v-.6zm2.237-2.237a2.24 2.24 0 01-2.237 2.237v.6a2.84 2.84 0 002.838-2.837h-.6zM65.538 75.3a2.24 2.24 0 012.237 2.238h.6a2.84 2.84 0 00-2.837-2.838v.6zm-1.454 2.238c0 .802.652 1.453 1.454 1.453v-.6a.855.855 0 01-.854-.853h-.6zm1.454-1.454c-.802 0-1.454.652-1.454 1.454h.6c0-.47.383-.854.854-.854v-.6zm1.453 1.454c0-.802-.651-1.454-1.453-1.454v.6c.47 0 .853.383.853.854h.6zm-1.453 1.453c.802 0 1.453-.651 1.453-1.453h-.6c0 .47-.383.853-.853.853v.6zm8.06-2.607a.392.392 0 01.554 0l.424-.424a.992.992 0 00-1.403 0l.424.424zm-9.136 9.135l9.135-9.135-.424-.424-9.136 9.135.425.424zm0 .555a.392.392 0 010-.555l-.425-.424a.992.992 0 000 1.403l.425-.424zm.277.115a.39.39 0 01-.277-.115l-.425.424a.99.99 0 00.702.29v-.6zm.277-.115a.39.39 0 01-.277.115v.6a.99.99 0 00.701-.29l-.424-.425zm9.136-9.135l-9.136 9.135.424.424 9.136-9.135-.424-.424zm0-.555a.392.392 0 010 .555l.424.424a.992.992 0 000-1.403l-.424.424zm-1.077 5.698a2.84 2.84 0 00-2.838 2.838h.6a2.24 2.24 0 012.238-2.238v-.6zm2.838 2.838a2.84 2.84 0 00-2.838-2.838v.6a2.24 2.24 0 012.238 2.238h.6zm-2.838 2.838a2.84 2.84 0 002.838-2.838h-.6a2.24 2.24 0 01-2.238 2.238v.6zm-2.838-2.838a2.84 2.84 0 002.838 2.838v-.6a2.24 2.24 0 01-2.238-2.238h-.6zm2.838.854a.855.855 0 01-.854-.854h-.6c0 .802.652 1.454 1.454 1.454v-.6zm.853-.854c0 .47-.383.854-.853.854v.6c.802 0 1.453-.652 1.453-1.454h-.6zm-.853-.853c.47 0 .853.383.853.853h.6c0-.802-.651-1.453-1.453-1.453v.6zm-.854.853c0-.47.383-.853.854-.853v-.6c-.802 0-1.454.651-1.454 1.453h.6z"/><rect y="-1.414" width="5" height="126.893" rx="2.5" transform="scale(-1 1) rotate(45 -4.959 -5.879)" stroke="#fff" stroke-width="2"/></g><defs><clipPath id="kclip0"><path fill="#fff" d="M0 0h96v96H0z"/></clipPath></defs></svg><svg fill="none" viewBox="0 0 96 96" id="google-docs-2" xmlns="http://www.w3.org/2000/svg"><g clip-path="url(#lclip0)" fill="#0A2896" stroke="#fff" stroke-width="1.4"><path d="M83.243 23.819h0c.377.376.62.92.62 1.494v62.25c0 4.265-3.472 7.737-7.738 7.737h-56.25c-4.266 0-7.738-3.472-7.738-7.737V8.436C12.137 4.173 15.61.7 19.875.7H59.25c.56 0 1.1.225 1.494.619h0l22.5 22.5zM62.558 9.107l-1.196-1.195v11.775a3.516 3.516 0 003.513 3.513H76.65l-1.195-1.195L62.557 9.107zm-5.42-3.482v-.7H19.874a3.516 3.516 0 00-3.512 3.513v79.124a3.516 3.516 0 003.512 3.513h56.25a3.516 3.516 0 003.513-3.513V27.425H64.874c-4.266 0-7.737-3.472-7.737-7.738V5.626z"/><path d="M31.125 40.45h33.75a2.113 2.113 0 010 4.225h-33.75a2.113 2.113 0 010-4.225zM31.125 51.7h33.75a2.113 2.113 0 010 4.225h-33.75a2.113 2.113 0 010-4.225zM31.125 62.95h33.75a2.113 2.113 0 010 4.225h-33.75a2.113 2.113 0 010-4.225zM31.125 74.2h22.5a2.113 2.113 0 010 4.225h-22.5a2.113 2.113 0 010-4.225z"/></g><defs><clipPath id="lclip0"><path fill="#fff" d="M0 0h96v96H0z"/></clipPath></defs></svg><svg fill="none" viewBox="0 0 68 68" id="money-bag" xmlns="http://www.w3.org/2000/svg"><path d="M50.18 45.393l-7.253-11.37a3.228 3.228 0 001.73-2.856 3.23 3.23 0 00-2.03-2.995l2.197-7.681a.949.949 0 00-.241-.932 3.753 3.753 0 00-5.3 0c-.35.35-.815.542-1.31.542a1.84 1.84 0 01-1.31-.544l-.005-.005a3.755 3.755 0 00-5.293-.008l-.027.027a1.854 1.854 0 01-2.613-.005l-.007-.007a3.753 3.753 0 00-5.3 0 .95.95 0 00-.241.932l2.201 7.68a3.23 3.23 0 00-2.035 2.996c0 1.24.703 2.317 1.73 2.857l-7.252 11.369c-2.806 4.398-2.984 9.755-.476 14.33 2.508 4.575 7.12 7.306 12.337 7.306h8.636c5.217 0 9.829-2.731 12.337-7.306 2.508-4.575 2.33-9.932-.475-14.33zM27.377 20.9l.007.007a3.756 3.756 0 005.292.008l.027-.027a1.855 1.855 0 012.615.007l.005.005a3.753 3.753 0 005.3 0 1.854 1.854 0 012.2-.314L40.72 27.94H27.287l-2.11-7.354a1.854 1.854 0 012.2.314zM48.99 58.81c-2.17 3.957-6.16 6.32-10.673 6.32h-8.636c-4.513 0-8.503-2.362-10.673-6.32s-2.016-8.592.412-12.398l7.668-12.02h2.642a.949.949 0 100-1.898H26.57a1.33 1.33 0 01-1.329-1.328 1.33 1.33 0 011.329-1.328h14.863a1.33 1.33 0 011.328 1.328 1.33 1.33 0 01-1.328 1.328h-3.163a.949.949 0 000 1.898h2.643l7.668 12.02c2.427 3.806 2.581 8.44.411 12.398z" fill="#0A2896" stroke="#0A2896" stroke-width=".5"/><path d="M34 34.393c.25 0 .494-.102.67-.278a.956.956 0 00.279-.671.956.956 0 00-.278-.67.956.956 0 00-.671-.279.956.956 0 00-.67.278.956.956 0 00-.279.671c0 .25.102.494.278.67a.956.956 0 00.671.279z" fill="#0A2896" stroke="#0A2896" stroke-width=".5"/><path d="M36.075 13.158a6.094 6.094 0 10-6.094-6.093 6.1 6.1 0 006.094 6.093zm0-10.155a4.063 4.063 0 110 8.125 4.063 4.063 0 010-8.125z" fill="#0A2896" stroke="#0A2896" stroke-width=".3"/><path d="M38.107 7.065h-2.031v2.031c1.121 0 2.03-.91 2.03-2.031z" fill="#0A2896" stroke="#0A2896" stroke-width=".3"/><path fill="#0A2896" d="M25.257.971H27.2v6.8h-1.943zM25.257 9.714H27.2V13.6h-1.943z"/></svg></svg>