<svg width="96" height="96" fill="none" xmlns="http://www.w3.org/2000/svg"><g clip-path="url(#clip0)" fill="#0A2896" stroke="#fff" stroke-width=".5"><path d="M66.136 19.25v.2l.196.044a37.401 37.401 0 0118.4 10.102A37.698 37.698 0 0195.566 52.46c.844 8.493-1.237 17.09-5.858 24.208a1.625 1.625 0 11-2.726-1.77c8.773-13.51 6.86-31.594-4.549-43.002l-.177.177.177-.177c-13.403-13.403-35.211-13.403-48.614 0-13.403 13.403-13.403 35.211 0 48.614 11.423 11.424 29.523 13.327 43.04 4.525a1.625 1.625 0 011.773 2.724c-6.089 3.965-13.265 6.068-20.534 6.068-1.23 0-2.461-.06-3.691-.181A37.696 37.696 0 0131.52 82.808a37.408 37.408 0 01-8.568-13.25l-.061-.161H9.375a1.625 1.625 0 010-3.25h12.472l-.083-.314a37.825 37.825 0 01-1.163-7.16l-.015-.233H12a1.625 1.625 0 010-3.25h8.534l.008-.242a37.88 37.88 0 01.924-7.16l.07-.305H1.875a1.625 1.625 0 010-3.25h20.587l.057-.17a37.341 37.341 0 013.305-7.16l.225-.377H14.656a1.625 1.625 0 010-3.25h13.362c.037 0 .075.002.123.006l.135.01.082-.106a37.8 37.8 0 013.163-3.59 37.4 37.4 0 0118.342-10.09l.196-.043V14.29l-.19-.047a6.136 6.136 0 01-4.647-5.944 6.132 6.132 0 016.125-6.125h13.5A6.132 6.132 0 0170.974 8.3a6.136 6.136 0 01-4.647 5.944l-.19.047v4.96zm-12.827-.632v.282l.28-.034a37.96 37.96 0 019.018-.006l.28.033v-4.468h-9.578v4.193zM51.347 5.424A2.878 2.878 0 0048.472 8.3a2.878 2.878 0 002.875 2.876h13.501A2.878 2.878 0 0067.723 8.3a2.878 2.878 0 00-2.875-2.875h-13.5z"/><path d="M82.433 80.51v-.001c.302-.302.72-.476 1.149-.476.426 0 .845.174 1.15.476.301.302.475.722.475 1.149 0 .426-.174.846-.476 1.148a1.628 1.628 0 01-2.297 0h-.001a1.632 1.632 0 01-.476-1.148c0-.428.173-.847.476-1.149zM29.29 56.202c0-15.901 12.936-28.837 28.836-28.837 15.9 0 28.837 12.936 28.837 28.837 0 15.9-12.936 28.837-28.837 28.837-15.9 0-28.837-12.937-28.837-28.837zm3.25 0c0 14.109 11.477 25.587 25.586 25.587 14.11 0 25.587-11.478 25.587-25.587 0-14.11-11.478-25.587-25.587-25.587S32.54 42.093 32.54 56.202z"/><path d="M60.59 51.2l.16.08.127-.127 9.287-9.287s0 0 0 0a1.625 1.625 0 012.298 2.298l-.273.273-9.014 9.014-.127.127.08.16c.367.744.575 1.58.575 2.464a5.583 5.583 0 01-5.577 5.576 5.583 5.583 0 01-5.576-5.576c0-.884.207-1.72.575-2.463l.08-.16-.127-.128-4.157-4.156a1.625 1.625 0 012.299-2.298l4.156 4.156.127.127.16-.08a5.54 5.54 0 012.463-.575c.884 0 1.72.208 2.463.575zm-4.79 5.002a2.329 2.329 0 002.326 2.326 2.329 2.329 0 002.327-2.326 2.329 2.329 0 00-2.327-2.326 2.329 2.329 0 00-2.326 2.326zM76.438 54.6h1.737a1.625 1.625 0 010 3.25h-1.737a1.625 1.625 0 010-3.25zm-38.36-.046h1.737a1.625 1.625 0 010 3.25h-1.737a1.625 1.625 0 010-3.25zm21.695-16.663a1.625 1.625 0 01-3.25 0v-1.737a1.625 1.625 0 013.25 0v1.737zM56.48 74.513a1.625 1.625 0 013.25 0v1.736a1.625 1.625 0 01-3.25 0v-1.736zM3.024 68.92h0a1.638 1.638 0 01-1.149.476 1.64 1.64 0 01-1.149-.476 1.635 1.635 0 01-.476-1.15c0-.427.174-.847.476-1.149a1.64 1.64 0 011.149-.476c.427 0 .847.174 1.149.476h0c.302.302.476.722.476 1.149 0 .427-.174.847-.476 1.149z"/></g><defs><clipPath id="clip0"><path fill="#fff" d="M0 0h96v96H0z"/></clipPath></defs></svg>