<svg width="16" height="16" fill="none" xmlns="http://www.w3.org/2000/svg"><path fill-rule="evenodd" clip-rule="evenodd" d="M7.867 13.04A7.72 7.72 0 01.972 8.788a1.305 1.305 0 010-1.176A7.719 7.719 0 017.867 3.36a7.719 7.719 0 016.894 4.252c.187.37.187.806 0 1.176a7.719 7.719 0 01-6.894 4.252zm0-8.667A6.673 6.673 0 001.843 8.13a.16.16 0 000 .14 6.674 6.674 0 006.024 3.757A6.673 6.673 0 0013.89 8.27a.16.16 0 000-.14 6.673 6.673 0 00-6.023-3.757zM5.027 8.2a2.845 2.845 0 012.84-2.84 2.844 2.844 0 012.84 2.84 2.844 2.844 0 01-2.84 2.84 2.845 2.845 0 01-2.84-2.84zm2.84-1.827a1.827 1.827 0 10.001 3.655 1.827 1.827 0 00-.001-3.655z" fill="#6B7683"/></svg>