<svg width="16" height="16" fill="none" xmlns="http://www.w3.org/2000/svg"><path fill-rule="evenodd" clip-rule="evenodd" d="M3.644 4.62l-.288-.289a.533.533 0 01.755-.754l8.296 8.297a.533.533 0 11-.754.754l-.38-.38a7.72 7.72 0 01-10.3-3.46 1.305 1.305 0 010-1.176 7.771 7.771 0 012.671-2.993zm6.87 6.869a6.724 6.724 0 01-2.647.538A6.674 6.674 0 011.843 8.27a.16.16 0 010-.14 6.695 6.695 0 012.53-2.782L5.565 6.54a2.824 2.824 0 00-.538 1.66 2.845 2.845 0 002.84 2.84c.619 0 1.193-.2 1.66-.538l.986.986zM8.796 9.771L6.295 7.27a1.827 1.827 0 002.502 2.502zm-.93-4.412c-.362 0-.481.426-.225.682l.169.169a.76.76 0 00.399.195A1.83 1.83 0 019.66 7.857a.755.755 0 00.195.4l.169.168c.256.256.682.137.682-.225a2.844 2.844 0 00-2.84-2.84zm6.023 2.91a6.733 6.733 0 01-1.363 1.88.532.532 0 00-.021.756.476.476 0 00.665.018 7.767 7.767 0 001.59-2.136c.187-.37.187-.806 0-1.176a7.719 7.719 0 00-8.573-4.068c-.382.084-.493.551-.216.828a.553.553 0 00.506.144 6.79 6.79 0 011.389-.143A6.673 6.673 0 0113.89 8.13a.16.16 0 010 .14z" fill="#6B7683"/></svg>